<svg version="1.0" xmlns="http://www.w3.org/2000/svg"
     width="50.000000pt" height="50.000000pt" viewBox="0 0 50.000000 50.000000"
     preserveAspectRatio="xMidYMid meet">

    <g transform="translate(0.000000,50.000000) scale(0.100000,-0.100000)"
       fill="#00D69F" stroke="none">
        <path d="M0 250 l0 -250 250 0 250 0 0 250 0 250 -250 0 -250 0 0 -250z m314
175 c47 -23 94 -85 102 -137 5 -30 12 -40 31 -44 l24 -6 -33 -33 c-18 -17 -45
-50 -59 -72 -29 -43 -80 -72 -140 -80 -122 -17 -250 126 -176 195 32 30 77 45
102 33 34 -16 147 -52 151 -48 6 6 -109 47 -130 47 -28 0 -13 23 27 43 44 22
81 14 146 -34 45 -32 52 -24 27 34 -69 162 -310 130 -341 -46 -8 -39 -25 -61
-25 -30 0 40 23 96 53 130 63 72 153 90 241 48z"/>
        <path d="M105 258 c-126 -69 40 -231 182 -177 30 11 79 53 94 80 8 15 4 16
-31 7 -55 -14 -119 11 -163 63 -36 41 -49 45 -82 27z"/>
    </g>
</svg>
